<?xml version="1.0" encoding="UTF-8"?>
<svg version="1.1" xmlns="http://www.w3.org/2000/svg" width="753" height="753">
<path d="M0 0 C1.16196396 -0.00570007 2.32392792 -0.01140015 3.52110291 -0.01727295 C5.97247425 -0.02666309 8.42385788 -0.0332329 10.87524414 -0.03710938 C14.52839839 -0.04671346 18.18096404 -0.07775353 21.83398438 -0.109375 C38.25531786 -0.1833356 54.26113338 0.96898415 70.52734375 3.203125 C71.2816568 3.30554504 72.03596985 3.40796509 72.81314087 3.51348877 C76.69358331 4.05263943 80.54896 4.6848257 84.40234375 5.390625 C85.53397949 5.5956665 86.66561523 5.80070801 87.83154297 6.01196289 C101.28479866 8.56828472 114.42407877 12.25569789 127.52734375 16.203125 C128.84532959 16.59951172 128.84532959 16.59951172 130.18994141 17.00390625 C165.05384987 27.66765744 198.65755118 44.36353838 228.52734375 65.203125 C229.0996875 65.59677246 229.67203125 65.99041992 230.26171875 66.39599609 C239.43402011 72.70970015 248.08395525 79.57587229 256.66162109 86.67089844 C258.42322562 88.11761789 260.19924235 89.54340841 261.984375 90.9609375 C262.98855469 91.76273437 263.99273438 92.56453125 265.02734375 93.390625 C266.3421875 94.43283203 266.3421875 94.43283203 267.68359375 95.49609375 C268.29203125 96.05941406 268.90046875 96.62273437 269.52734375 97.203125 C269.52734375 97.863125 269.52734375 98.523125 269.52734375 99.203125 C270.09807617 99.44933594 270.66880859 99.69554688 271.25683594 99.94921875 C273.90577185 101.41211497 275.71282921 103.12957819 277.85546875 105.265625 C278.6546875 106.06226562 279.45390625 106.85890625 280.27734375 107.6796875 C281.10234375 108.51242188 281.92734375 109.34515625 282.77734375 110.203125 C283.6178125 111.03585938 284.45828125 111.86859375 285.32421875 112.7265625 C286.11828125 113.52320312 286.91234375 114.31984375 287.73046875 115.140625 C288.45911133 115.87152344 289.18775391 116.60242188 289.93847656 117.35546875 C291.52734375 119.203125 291.52734375 119.203125 291.52734375 121.203125 C292.18734375 121.203125 292.84734375 121.203125 293.52734375 121.203125 C295.02319336 122.68066406 295.02319336 122.68066406 296.7421875 124.71875 C297.36593262 125.45287109 297.98967773 126.18699219 298.63232422 126.94335938 C299.57035889 128.06194336 299.57035889 128.06194336 300.52734375 129.203125 C301.3474292 130.15928711 301.3474292 130.15928711 302.18408203 131.13476562 C316.62588919 148.00046522 329.00048164 166.24938489 340.52734375 185.203125 C341.10307129 186.14961914 341.10307129 186.14961914 341.69042969 187.11523438 C346.9454314 195.83711051 351.33777546 204.86942597 355.56591797 214.11572266 C356.4867117 216.1149066 357.42632536 218.1037622 358.375 220.08984375 C374.74884171 254.41734183 384.67036787 291.53148287 389.52734375 329.203125 C389.6444873 330.08307129 389.76163086 330.96301758 389.88232422 331.86962891 C401.22666605 421.73097557 377.18145896 516.13918125 325.52734375 590.203125 C324.86025391 591.16750488 324.86025391 591.16750488 324.1796875 592.15136719 C319.2599823 599.24822551 314.116578 606.08877435 308.5703125 612.71484375 C306.14916375 615.66373812 303.91331807 618.71993073 301.71875 621.83984375 C301.32558594 622.28972656 300.93242188 622.73960937 300.52734375 623.203125 C299.86734375 623.203125 299.20734375 623.203125 298.52734375 623.203125 C298.25801025 623.79391846 297.98867676 624.38471191 297.71118164 624.9934082 C296.5284181 627.20111964 295.29833128 628.742483 293.5859375 630.55859375 C293.00666504 631.17669922 292.42739258 631.79480469 291.83056641 632.43164062 C291.21487793 633.07810547 290.59918945 633.72457031 289.96484375 634.390625 C289.33368652 635.05900391 288.7025293 635.72738281 288.05224609 636.41601562 C280.83155698 644.03693195 273.50881233 651.37917126 265.52734375 658.203125 C264.08681641 659.47736328 264.08681641 659.47736328 262.6171875 660.77734375 C237.50292375 682.88031395 209.48244176 700.71458948 179.42578125 715.28271484 C178.18692215 715.88334484 176.94984712 716.48767277 175.71484375 717.09619141 C163.92254184 722.89859873 151.69886024 727.48539496 139.36450195 731.99365234 C133.84368269 734.02690542 128.52953352 736.43288357 123.1875 738.8984375 C119.60457438 740.17559562 116.67196994 740.58749672 112.92797852 740.91162109 C109.48254384 741.3299928 106.23183081 742.26180954 102.88793945 743.17138672 C66.36744887 752.93824639 29.07302106 753.1595124 -8.47265625 752.203125 C-9.24949768 752.18507813 -10.02633911 752.16703125 -10.82672119 752.1484375 C-40.91082899 751.4201232 -70.90398553 744.29991781 -99.47265625 735.203125 C-100.36758789 734.92001465 -101.26251953 734.6369043 -102.18457031 734.34521484 C-132.80558865 724.50819802 -161.3526197 710.35288177 -188.47265625 693.203125 C-189.09076172 692.81415039 -189.70886719 692.42517578 -190.34570312 692.02441406 C-210.84790042 679.03631009 -230.26730672 663.88243341 -247.19921875 646.5078125 C-249.64305693 644.00846409 -252.15030789 641.6813693 -254.84765625 639.453125 C-258.89350429 636.05073427 -262.04515083 632.00092899 -265.296875 627.8515625 C-267.54156249 625.1192499 -269.96569758 622.69439066 -272.47265625 620.203125 C-280.94658026 610.41481497 -288.83744442 600.09168427 -295.671875 589.09375 C-297.30110902 586.47849366 -298.97105197 583.8937 -300.65576172 581.31396484 C-314.48321588 560.06165203 -326.16742203 537.80371904 -335.47265625 514.203125 C-335.77123535 513.4503125 -336.06981445 512.6975 -336.37744141 511.921875 C-351.18190111 474.22899449 -360.52210559 432.86607502 -360.67578125 392.29296875 C-360.68148132 391.0866127 -360.6871814 389.88025665 -360.6930542 388.63734436 C-360.70244741 386.09181579 -360.70901539 383.54627537 -360.71289062 381.00073242 C-360.72249913 377.20273099 -360.75353819 373.40529458 -360.78515625 369.60742188 C-360.88058402 347.76999725 -359.11522018 326.25277848 -354.78515625 304.828125 C-354.53096924 303.55050293 -354.27678223 302.27288086 -354.01489258 300.95654297 C-347.64614829 269.61262873 -337.33157355 239.98003549 -323.47265625 211.203125 C-322.93342529 210.06907227 -322.93342529 210.06907227 -322.38330078 208.91210938 C-308.42491466 179.61925416 -289.89258963 152.54215068 -268.47265625 128.203125 C-267.28736328 126.84960938 -267.28736328 126.84960938 -266.078125 125.46875 C-259.92536295 118.60866255 -253.45948594 112.05834614 -246.97265625 105.515625 C-246.10656738 104.63648437 -245.24047852 103.75734375 -244.34814453 102.8515625 C-238.36964697 96.86518813 -232.07459643 91.48560962 -225.47265625 86.203125 C-223.63677188 84.62275031 -221.8028605 83.04007426 -219.97265625 81.453125 C-212.56314824 75.25274036 -204.54244431 69.97152145 -196.52539062 64.59667969 C-194.17376908 63.0002173 -191.88510075 61.32740961 -189.59765625 59.640625 C-176.51332292 50.44499213 -161.90469187 43.04466535 -147.47265625 36.203125 C-146.27382813 35.62763916 -146.27382813 35.62763916 -145.05078125 35.04052734 C-100.32166049 13.66712362 -49.76547011 0.19614023 0 0 Z " fill="#FEFDFD" transform="translate(361.47265625,0.796875)"/>
<path d="M0 0 C0.83582611 0.00054382 1.67165222 0.00108765 2.5328064 0.00164795 C41.39856608 0.11766653 76.13667913 12.70562236 103.83203125 40.546875 C117.14193639 54.34066144 127.17057853 70.27302016 134.55078125 87.9609375 C136.57630803 92.57291387 139.29700199 96.27551726 142.4375 100.1875 C143.60365231 101.68037459 144.76898387 103.17389058 145.93359375 104.66796875 C146.84214111 105.82498291 146.84214111 105.82498291 147.76904297 107.00537109 C177.23668766 144.62875434 220.57146776 202.51559151 216.625 253.375 C215.07861577 260.40000266 212.27978684 266.75712504 206.625 271.375 C198.18178325 276.60839881 189.92137533 278.75267796 180.0625 278.6875 C179.17844482 278.68258545 178.29438965 278.6776709 177.38354492 278.67260742 C169.83132229 278.53886086 162.90792929 277.40305359 155.625 275.375 C154.31400451 275.04217039 153.00279706 274.71017483 151.69140625 274.37890625 C126.04358336 267.63648412 102.1104046 253.64438915 80.625 238.375 C79.99658203 237.92914551 79.36816406 237.48329102 78.72070312 237.02392578 C71.34200767 231.75895752 64.1219042 226.34435574 57.20703125 220.4765625 C54.64109004 218.32100983 54.64109004 218.32100983 51.76171875 216.4609375 C44.94971132 211.77828458 44.94971132 211.77828458 43.95703125 207.48828125 C43.86062336 205.41160328 43.80336882 203.33274106 43.78515625 201.25390625 C43.3580476 193.57636777 37.26127593 188.95330802 32.05932617 183.91796875 C17.19017666 169.25385985 8.34436245 150.21038541 -0.32015991 131.52435303 C-15.35836225 98.00550448 -15.35836225 98.00550448 -44.1875 77 C-54.48757789 73.88906277 -63.75432692 74.53015603 -73.375 79.375 C-88.66886724 88.0082926 -97.33858806 104.6678333 -102.27978516 121.06005859 C-109.2565281 147.28519409 -104.14595156 175.27560382 -91.12548828 198.61474609 C-86.11895308 206.98642599 -80.16475767 214.37383962 -73.375 221.375 C-72.75367188 222.06980469 -72.13234375 222.76460937 -71.4921875 223.48046875 C-65.9294148 229.49710784 -59.43662101 233.32748552 -52.375 237.375 C-53.73923326 241.68857566 -55.39105489 245.75257251 -57.25 249.875 C-68.83255412 276.55542224 -69.97965307 306.92344014 -65.375 335.375 C-65.21370605 336.40931152 -65.05241211 337.44362305 -64.88623047 338.50927734 C-61.05753308 362.83296791 -55.59940918 386.40089214 -48.16259766 409.86816406 C-47.46727337 412.08130411 -46.79485306 414.29902012 -46.13671875 416.5234375 C-37.97647229 443.72425905 -26.86364332 469.77470313 -11.46044922 493.67773438 C-10.05078166 495.88196489 -8.70627494 498.12274469 -7.375 500.375 C-10.77283032 499.06302637 -14.00905864 497.59737422 -17.25 495.9375 C-19.62384491 494.74763233 -21.99889347 493.56033461 -24.375 492.375 C-25.23641602 491.94380859 -26.09783203 491.51261719 -26.98535156 491.06835938 C-29.94245142 489.59535086 -32.90796689 488.14038418 -35.875 486.6875 C-36.82358887 486.2119165 -37.77217773 485.73633301 -38.74951172 485.24633789 C-63.13466352 473.38866536 -94.577726 474.85855105 -120.375 481.375 C-122.46294262 481.8762001 -124.55152082 482.37475752 -126.640625 482.87109375 C-129.81451649 483.62654715 -132.98595264 484.38698446 -136.15063477 485.18017578 C-149.92046091 488.60915722 -162.82904046 490.88466203 -177.02905273 490.76611328 C-179.3083904 490.750029 -181.58594965 490.76607455 -183.86523438 490.78515625 C-197.70321543 490.80587749 -211.07063517 488.80165905 -224.3125 484.6875 C-225.1389502 484.43331299 -225.96540039 484.17912598 -226.81689453 483.91723633 C-252.2529628 475.81909414 -279.90821781 460.36405895 -293.375 436.375 C-293.375 435.385 -293.375 434.395 -293.375 433.375 C-292.68019531 433.25125 -291.98539063 433.1275 -291.26953125 433 C-270.21686178 428.73076411 -248.5552759 419.67454272 -232.375 405.375 C-231.38886719 404.61896484 -231.38886719 404.61896484 -230.3828125 403.84765625 C-219.03147849 394.88967579 -211.59845021 381.62088129 -206.375 368.375 C-206.10848633 367.71757813 -205.84197266 367.06015625 -205.56738281 366.3828125 C-194.7540309 339.14725304 -194.62444552 308.26939888 -193.83691406 279.37158203 C-193.50617186 268.72086315 -192.78015467 258.12099523 -191.9375 247.5 C-191.87587677 246.71015717 -191.81425354 245.92031433 -191.75076294 245.10653687 C-190.91427422 234.483144 -189.76341932 223.94029568 -188.375 213.375 C-188.11152661 211.21099255 -187.84848271 209.04693275 -187.5859375 206.8828125 C-180.56213229 151.82303214 -163.77125746 93.13366406 -124.375 52.375 C-123.15683594 51.07949219 -123.15683594 51.07949219 -121.9140625 49.7578125 C-90.76165716 17.39560501 -44.39750964 -0.10873801 0 0 Z " fill="#110907" transform="translate(451.375,152.625)"/>
<path d="M0 0 C2.0078125 2.4921875 2.0078125 2.4921875 4.125 5.875 C21.46851189 32.25233784 52.95997855 46.62329525 83 53 C93.12475514 54.97783807 103.03446444 55.4404753 113.3125 55.4375 C114.49727936 55.43910126 114.49727936 55.43910126 115.70599365 55.44073486 C128.60116966 55.41571714 140.53997966 54.05702991 153.04589844 50.76611328 C157.4512617 49.62363147 161.8858876 48.61643664 166.32177734 47.60009766 C168.52461037 47.09402022 170.72564892 46.58003112 172.92431641 46.05615234 C184.88108883 43.22674537 196.26665565 41.64740229 208.55273438 41.68432617 C210.73358722 41.68747629 212.91306443 41.66396586 215.09375 41.63867188 C228.10735679 41.57745725 241.18375387 42.69776799 252.875 48.875 C253.58422607 49.22868652 254.29345215 49.58237305 255.02416992 49.94677734 C257.02506165 50.94802366 259.01268182 51.97216815 261 53 C262.77004497 53.8765937 264.54074049 54.75187691 266.3125 55.625 C267.8754177 56.41584172 269.43789488 57.20755445 271 58 C273.12446928 59.06356078 275.24948869 60.12602323 277.375 61.1875 C279.25 62.125 281.125 63.0625 283 64 C283.68449219 64.26167969 284.36898438 64.52335938 285.07421875 64.79296875 C287.98077352 66.61472418 289.56744057 69.32355059 291.4375 72.125 C295.22222205 77.60923327 299.20447628 82.85404478 303.4375 88 C304.26374878 89.00546875 304.26374878 89.00546875 305.10668945 90.03125 C306.20860158 91.37211738 307.31057029 92.71293827 308.41259766 94.05371094 C311.77401929 98.17509717 315.03843368 102.37256311 318.30859375 106.56640625 C320.13331279 108.90484874 321.98119793 111.22209284 323.84765625 113.52734375 C329.8961771 121.03367607 335.14091183 128.66849741 340 137 C340.85078125 138.35931641 340.85078125 138.35931641 341.71875 139.74609375 C343 142 343 142 343 144 C343.66 144.33 344.32 144.66 345 145 C343.96875 145.37125 342.9375 145.7425 341.875 146.125 C336.68307656 148.04315289 331.68354798 150.37682401 326.66015625 152.6953125 C323.07723063 153.97247062 320.14462619 154.38437172 316.40063477 154.70849609 C312.95520009 155.1268678 309.70448706 156.05868454 306.3605957 156.96826172 C269.84010512 166.73512139 232.54567731 166.9563874 195 166 C194.22315857 165.98195313 193.44631714 165.96390625 192.64593506 165.9453125 C162.56182726 165.2169982 132.56867072 158.09679281 104 149 C103.10506836 148.71688965 102.21013672 148.4337793 101.28808594 148.14208984 C70.6670676 138.30507302 42.12003655 124.14975677 15 107 C14.38189453 106.61102539 13.76378906 106.22205078 13.12695312 105.82128906 C-7.37524417 92.83318509 -26.79465047 77.67930841 -43.7265625 60.3046875 C-46.17040068 57.80533909 -48.67765164 55.4782443 -51.375 53.25 C-55.42084804 49.84760927 -58.57249458 45.79780399 -61.82421875 41.6484375 C-64.06890624 38.9161249 -66.49304133 36.49126566 -69 34 C-85.68757896 14.72401919 -85.68757896 14.72401919 -89 6 C-87.30979736 6.01571045 -87.30979736 6.01571045 -85.58544922 6.03173828 C-58.53729537 6.26072159 -32.720193 5.74922802 -6.12451172 0.33544922 C-4 0 -4 0 0 0 Z " fill="#D4CABE" transform="translate(158,587)"/>
<path d="M0 0 C4.66479863 4.34553485 8.34410628 9.25654873 12.125 14.375 C12.78806152 15.26767578 13.45112305 16.16035156 14.13427734 17.08007812 C15.47281903 18.88376385 16.80959711 20.68875984 18.14453125 22.49511719 C19.74282594 24.65281502 21.35210809 26.80135872 22.96875 28.9453125 C48.89565646 63.50200737 84.5144154 115.70859023 81 161 C79.45361577 168.02500266 76.65478684 174.38212504 71 179 C62.55678325 184.23339881 54.29637533 186.37767796 44.4375 186.3125 C43.55344482 186.30758545 42.66938965 186.3026709 41.75854492 186.29760742 C34.20632229 186.16386086 27.28292929 185.02805359 20 183 C18.68900451 182.66717039 17.37779706 182.33517483 16.06640625 182.00390625 C-9.58141664 175.26148412 -33.5145954 161.26938915 -55 146 C-55.62841797 145.55414551 -56.25683594 145.10829102 -56.90429688 144.64892578 C-67.09442459 137.37789809 -77.22260535 129.96481233 -86 121 C-85.278125 119.9275 -84.55625 118.855 -83.8125 117.75 C-81.72059398 114.41346833 -80.14247859 111.09474211 -78.6875 107.4375 C-64.56823087 72.59548817 -39.76627057 42.83422458 -14 16 C-13.37319336 15.34257812 -12.74638672 14.68515625 -12.10058594 14.0078125 C-11.16520996 13.04488281 -11.16520996 13.04488281 -10.2109375 12.0625 C-9.6442334 11.47597656 -9.0775293 10.88945312 -8.49365234 10.28515625 C-7 9 -7 9 -5 9 C-4.731875 8.443125 -4.46375 7.88625 -4.1875 7.3125 C-2.89877353 4.80287477 -1.47073522 2.40665764 0 0 Z " fill="#54565F" transform="translate(587,245)"/>
<path d="M0 0 C11.19819931 7.70461067 18.47680583 17.59734792 25.1171875 29.3046875 C25.71789062 30.35398437 26.31859375 31.40328125 26.9375 32.484375 C31.25013677 40.29764579 34.993823 48.32400667 38.70187378 56.44033813 C47.96040474 76.68055695 58.38375567 94.52940208 74.8046875 109.8046875 C78.93676465 114.27179793 80.52658509 118.11448663 80.3046875 124.1796875 C80.26408203 125.62988281 80.26408203 125.62988281 80.22265625 127.109375 C80.18785156 127.83382812 80.15304687 128.55828125 80.1171875 129.3046875 C79.11300781 128.77359375 78.10882813 128.2425 77.07421875 127.6953125 C60.81500738 119.22547221 44.01802025 113.50416582 25.5546875 118.4296875 C24.05451377 119.00243334 22.57396911 119.62915337 21.1171875 120.3046875 C20.25480469 120.68367188 19.39242187 121.06265625 18.50390625 121.453125 C3.61184023 128.74117994 -9.33762617 143.13175555 -15.8828125 158.3046875 C-39.39428387 147.61765506 -54.87088541 124.95095551 -64.3515625 101.703125 C-73.39298854 77.57513341 -72.8660361 49.96414196 -62.1953125 26.4921875 C-55.55156318 12.82549008 -46.85569823 1.77618547 -32.4453125 -4.1953125 C-21.15458468 -7.78781681 -10.13357321 -5.95930999 0 0 Z " fill="#D4CABE" transform="translate(415.8828125,232.6953125)"/>
<path d="M0 0 C0.33 0 0.66 0 1 0 C0.9278125 0.63679688 0.855625 1.27359375 0.78125 1.9296875 C-0.93136278 19.86454917 -0.879988 38.20492411 2 56 C2.16129395 57.03431152 2.32258789 58.06862305 2.48876953 59.13427734 C6.31746692 83.45796791 11.77559082 107.02589214 19.21240234 130.49316406 C19.90772663 132.70630411 20.58014694 134.92402012 21.23828125 137.1484375 C29.39852771 164.34925905 40.51135668 190.39970313 55.91455078 214.30273438 C57.32421834 216.50696489 58.66872506 218.74774469 60 221 C56.60216968 219.68802637 53.36594136 218.22237422 50.125 216.5625 C47.75115509 215.37263233 45.37610653 214.18533461 43 213 C42.13858398 212.56880859 41.27716797 212.13761719 40.38964844 211.69335938 C37.43254858 210.22035086 34.46703311 208.76538418 31.5 207.3125 C30.55141113 206.8369165 29.60282227 206.36133301 28.62548828 205.87133789 C4.24033648 194.01366536 -27.202726 195.48355105 -53 202 C-55.08794262 202.5012001 -57.17652082 202.99975752 -59.265625 203.49609375 C-62.43951649 204.25154715 -65.61095264 205.01198446 -68.77563477 205.80517578 C-71.84377505 206.56920838 -74.91799511 207.29394827 -78 208 C-79.80863525 208.4180188 -79.80863525 208.4180188 -81.65380859 208.84448242 C-92.15338628 211.12411217 -102.28964089 211.35986307 -113 211.1875 C-114.66144596 211.1723989 -116.32290547 211.15872026 -117.984375 211.14648438 C-121.98992862 211.11397011 -125.99480673 211.06250102 -130 211 C-130 210.67 -130 210.34 -130 210 C-129.443125 209.82984375 -128.88625 209.6596875 -128.3125 209.484375 C-86.33781226 196.15457551 -58.65961065 156.14875757 -39.30444336 118.91113281 C-33.95672273 108.28113414 -29.75977851 97.27933553 -26 86 C-25.74669922 85.24009766 -25.49339844 84.48019531 -25.23242188 83.69726562 C-21.42861704 71.9390655 -19.2821153 59.76856598 -17.05395508 47.63452148 C-16.81572021 46.34747314 -16.57748535 45.0604248 -16.33203125 43.734375 C-16.12296143 42.58163086 -15.9138916 41.42888672 -15.69848633 40.24121094 C-15.01200495 37.05570698 -14.05917462 34.07833605 -13 31 C-12.56234824 28.79572956 -12.14663779 26.58701846 -11.75 24.375 C-9.82948198 15.16236281 -6.18383147 7.13916243 0 0 Z " fill="#6F6562" transform="translate(384,432)"/>
<path d="M0 0 C0.83582611 0.00054382 1.67165222 0.00108765 2.5328064 0.00164795 C41.39856608 0.11766653 76.13667913 12.70562236 103.83203125 40.546875 C117.75273495 54.97366557 129.20216824 72.29297403 135.625 91.375 C135.52092045 95.85042072 133.61960642 98.15003924 130.625 101.375 C128.72079962 103.08964197 126.78171222 104.75849101 124.8359375 106.42578125 C119.0182861 111.55477073 113.6497303 117.15755696 108.61328125 123.05078125 C107.08718743 124.83472196 105.53858292 126.59942575 103.98046875 128.35546875 C84.61919417 150.28679534 68.35228881 175.56545058 56.625 202.375 C54.99516893 205.72744956 53.32131654 209.05576523 51.625 212.375 C47.625 212.375 47.625 212.375 45.625 211.375 C43.43288557 183.42554103 72.38306736 149.39865583 89.3359375 129.03125 C92.58463545 125.26142985 95.92587122 121.58241285 99.296875 117.921875 C101.24300592 115.79288614 103.13073432 113.63343347 105 111.4375 C108.14880706 107.81411197 111.49039106 104.40129434 114.875 101 C115.39497559 100.47543213 115.91495117 99.95086426 116.45068359 99.41040039 C118.75009142 97.12033368 120.91491084 95.18172611 123.625 93.375 C122.10787748 76.93604229 106.66023408 59.89244599 95.625 48.375 C94.39716797 47.03501953 94.39716797 47.03501953 93.14453125 45.66796875 C73.14362257 24.54440936 44.30496164 13.46430979 15.625 11.375 C14.76100586 11.29878418 13.89701172 11.22256836 13.00683594 11.14404297 C-28.35908568 7.60757817 -71.87912444 21.99120601 -103.9453125 48.3203125 C-147.67509886 85.30080707 -163.97898911 139.8451234 -174.375 194.375 C-174.55256836 195.29780762 -174.73013672 196.22061523 -174.91308594 197.17138672 C-178.97708114 218.81543858 -180.33608746 241.06766184 -181.4375 263.03515625 C-181.4772419 263.82658775 -181.5169838 264.61801926 -181.55792999 265.43343353 C-181.88086637 271.92309604 -182.18800808 278.41348963 -182.48962402 284.9041748 C-184.70196393 332.48711569 -184.70196393 332.48711569 -189.6875 352.25 C-190.00605957 353.53620239 -190.00605957 353.53620239 -190.33105469 354.84838867 C-195.17311194 373.73346611 -203.13933532 390.86444643 -216.375 405.375 C-217.05949219 406.14070313 -217.74398437 406.90640625 -218.44921875 407.6953125 C-233.73803653 423.91671991 -254.4713661 433.61014033 -275.375 440.375 C-276.035 440.375 -276.695 440.375 -277.375 440.375 C-275.73237299 442.07061498 -274.06408119 443.72613503 -272.375 445.375 C-271.53195312 446.22964844 -271.53195312 446.22964844 -270.671875 447.1015625 C-247.91427577 468.87359641 -214.98770199 477.93272116 -184.375 480.375 C-188.125 482.375 -188.125 482.375 -190.375 482.375 C-191.035 484.685 -191.695 486.995 -192.375 489.375 C-201.11670163 489.8566856 -208.91922389 488.53688915 -217.375 486.375 C-218.03274414 486.20871094 -218.69048828 486.04242187 -219.36816406 485.87109375 C-248.07037699 478.47290999 -274.8994715 463.19718358 -292.16015625 438.5390625 C-293.375 436.375 -293.375 436.375 -293.375 433.375 C-292.68019531 433.25125 -291.98539063 433.1275 -291.26953125 433 C-270.21686178 428.73076411 -248.5552759 419.67454272 -232.375 405.375 C-231.38886719 404.61896484 -231.38886719 404.61896484 -230.3828125 403.84765625 C-219.03147849 394.88967579 -211.59845021 381.62088129 -206.375 368.375 C-206.10848633 367.71757813 -205.84197266 367.06015625 -205.56738281 366.3828125 C-194.7540309 339.14725304 -194.62444552 308.26939888 -193.83691406 279.37158203 C-193.50617186 268.72086315 -192.78015467 258.12099523 -191.9375 247.5 C-191.87587677 246.71015717 -191.81425354 245.92031433 -191.75076294 245.10653687 C-190.91427422 234.483144 -189.76341932 223.94029568 -188.375 213.375 C-188.11152661 211.21099255 -187.84848271 209.04693275 -187.5859375 206.8828125 C-180.56213229 151.82303214 -163.77125746 93.13366406 -124.375 52.375 C-123.15683594 51.07949219 -123.15683594 51.07949219 -121.9140625 49.7578125 C-90.76165716 17.39560501 -44.39750964 -0.10873801 0 0 Z " fill="#040303" transform="translate(451.375,152.625)"/>
<path d="M0 0 C3.91432581 1.81922952 7.08591723 4.00022197 10 7.1875 C11.54083726 11.5211048 11.89444953 15.47140906 11 20 C8.97991861 23.4285785 6.58305829 26.20847086 3 28 C-1.98066973 28.54644038 -5.8958307 28.54204675 -10.4375 26.3125 C-14.47803012 22.66616794 -16.15438768 20.0055627 -16.4375 14.5625 C-16.26423062 10.02736233 -15.05025696 7.45160656 -12 4 C-7.9705753 0.67134481 -5.23546977 -0.94238456 0 0 Z " fill="#615851" transform="translate(478,222)"/>
<path d="M0 0 C3.0831351 1.19899698 6.06279492 2.47700477 9 4 C7.63576674 8.31357566 5.98394511 12.37757251 4.125 16.5 C0.48003452 24.78906986 -2.11490073 33.35100593 -3.8125 42.25 C-5.22584382 46.71319102 -7.47562456 49.72644121 -10.24609375 53.45703125 C-12.74179326 57.07551762 -14.41202283 60.91663013 -16 65 C-16.33 65 -16.66 65 -17 65 C-18.0627645 43.0362003 -10.55914149 20.51328883 -1 1 C-0.67 0.67 -0.34 0.34 0 0 Z " fill="#030202" transform="translate(390,386)"/>
<path d="M0 0 C-1.25 1.5625 -1.25 1.5625 -3 3 C-5.1875 2.6875 -5.1875 2.6875 -7 2 C-7 1.34 -7 0.68 -7 0 C-3.86650268 -1.04449911 -3.01031744 -0.93423645 0 0 Z " fill="#BAB3AA" transform="translate(484,738)"/>
<path d="M0 0 C2.31 0.66 4.62 1.32 7 2 C7 2.66 7 3.32 7 4 C2.545 3.01 2.545 3.01 -2 2 C-1.34 1.34 -0.68 0.68 0 0 Z " fill="#B3B1AE" transform="translate(249,729)"/>
</svg>
